<?xml version="1.0" standalone="no"?><!DOCTYPE svg PUBLIC "-//W3C//DTD SVG 1.1//EN" "http://www.w3.org/Graphics/SVG/1.1/DTD/svg11.dtd"><svg t="1776151505233" class="icon" viewBox="0 0 1024 1024" version="1.1" xmlns="http://www.w3.org/2000/svg" p-id="2678" xmlns:xlink="http://www.w3.org/1999/xlink" width="200" height="200"><path d="M876 106c0.7-2.7 0.5-2.3 3.2-3 1.6-2 13.5-3.4 18.1-2.1v1c2.4 0.4 4.7 0.7 7.1 1.1 2.2-0.5 4.9-3.1 9.1-2.1 2.1 0.7 5.4 3 9 2.1v-1.1c4.8-1.3 9-0.6 13.2 0v7c-3.3 0-4.5 0.5-7 1-1.3 5.4-2.9 4.3-7.1 6.9-0.3 0.5-0.6 1.3-1 1.9h-7.9v1h-2.2v1h-3v1c-3.8-0.3-7.4-0.6-11.2-1-0.2 0.7-0.5 1.4-1 1.9h-2.1v1.1h-2v1c-3.7 1.2-6.1-1.9-8-2.1h-1.1v1.1h-2.9v1H867c-0.4 0.6-0.7 1.3-1 2h-2v0.9c-4.1 0.4-8.1 0.7-12.1 1v-1h-7.1v1h-9.1v1c-1.7 0.4-3.3 0.7-5 1.1 1.1 1.1 0 0.4 2.1 1 2.6 4.4 6.6 4.7 7.1 11.9-1.2 0.8-0.1-0.2-1 0.9h-9.1v1.1h-3v1h-1c-4-0.4-8.1-0.8-12.2-1-0.3 0.5-0.6 1.2-1.1 1.9h-2.9v1h-2.9v1h-5.2v1h-5.1v1h-4v1h-3v1h-3.2v1h-2v1h-2c-0.3 0.8-0.7 1.4-1 2.1-3.4-0.3-6.8-0.7-10.2-1v1c-1 0.3-2 0.6-2.9 1l-2.2 2v2c-1.8 2.4-3.7 1.6-4.9 5.9-1.6 0.3-9.3 3.1-10.1 3.9v1.9c-1 0.7-2 1.4-3.1 2.1v2c-1.4 0.9-2.7 1.9-4 3v0.9h-8.1c-2.7-3-5.3-2.8-9.1-0.9v0.9h-2.1v1c-6.7 0.6-13.3 1.3-20.1 2.1v0.8c-2.1 0.8-4 1.3-6.1 2.1v1h-2c-0.3 0.7-0.7 1.3-1 2H693c-0.3 0.7-0.6 1.3-1 1.9h-2c-0.3 0.7-0.7 1.3-0.9 2H681v1c-8.2 0.6-16.3 1.2-24.3 2-3.7-1-9.1-2.5-13.2-1v1h-3v0.8h-3.1c-0.2 0.7-0.6 1.4-1 2h-2c-2.8 3-5.4 6-8.2 8.9h-4.1v1h-20.2v1.1h-3v1h-10.2v1h-2.1c-0.2 0.6-0.6 1.3-0.9 2h-3.2v1h-19.1c-0.7 1-1.4 1.9-2 3-1.7 0.4-3.4 0.6-5.1 0.9v1.1h-11v0.9c-3.5 2-6.9 3.9-10.2 5.9v2c-0.4 0.8-3.4 5.6-4 5.9h-12.3c-6.3-7.3-11.7 5.3-21 2.9v-0.9c-3.8-0.5-7.5-0.8-11.2-1.1v1.1h-2.1c-1 1.3-2 2.6-2.9 3.8-2.1 0.3-4.1 0.7-6.2 1v1h-30.3v1.1c-1.4 0.3-2.7 0.6-4.1 1-0.7 2.5-1.6 3.1-3 4.9h-1.1c-0.2 1.3-0.6 2.6-0.9 3.9-1 0.6-2 1.4-3 1.9v1.1h-2c-0.7 0.8-1.3 1.8-2 2.8-2.6 1.5-17.2 3.6-22.3 2v-1c-1.9-0.3-4-0.6-5.9-1-1.1 3.1-2.1 6-3.1 9-1.9 0.7-5 2.2-7.2 3h-4.9v1h-4.1v0.9h-3.9v1h-3.1v1h-3.1v1c-3 0.3-6.1 0.7-9.1 0.8v1.1h-2c-0.4 0.6-0.7 1.3-1 2h-2v0.8h-3v1.1h-2.1c-0.3 0.7-0.7 1.3-0.9 2-1.4 0.3-2.8 0.6-4.2 1-0.3 1-0.6 1.9-0.9 3.1h-1c-0.7 0.8-1.3 1.9-2 2.8h-2.1v1c-8.3 0.9-16.8 2-25.3 3v1h-3c-1.4 1.5-2.8 3.1-4 4.8-3.8 0.3-7.5 0.6-11.2 1v0.9h-3v1h-3v1h-4.1v1c-1.3 0.5-2.7 0.8-4 1v0.9c-2.1 0.4-4 0.8-6.1 1.1v0.9c-3-0.4-6.1-0.6-9.1-0.9v0.9c-1.3 0.3-2.7 0.7-4.1 1v1.9c-2.9 0.6-3.3 1.2-4 4-3.7 0.7-7.5 1.3-11.2 2-0.3 0.6-0.5 1.4-0.9 1.9h-3c-0.4 0.6-0.7 1.3-1.1 2h-1.9v1.1H240v0.9c-9.4 2-18.8 3.9-28.2 5.9-1.1 1.2-2.1 2.6-3 3.9h-3.1v1h-4.1v1.1h-2v0.8h-3v1c-1.3 0.4-2.7 0.7-4.1 1-0.2 0.7-0.5 1.4-1 1.9h-2v1c-1 0.4-2.1 0.7-3 1v1.9h-2v1h-10.1v1.1c-3.4-0.4-6.7-0.7-10.3-1.1v1.1c-6.4 1.5-15.2-0.6-19.2-2.1h-3c-0.3-0.6-0.7-1.3-1-1.9h-7.1v-1h-6.1v-1h-11v-1c-1.5-0.2-2.7-0.6-4.2-1-0.3-1.3-0.6-2.6-1-4h-1v-3.9h-0.9V331h-1v-3h-1.1c-1.3-1.7-2.7-3.3-4-5h-2c-1-1.3-2-2.6-3-4-1.1-0.3-2-0.6-3.1-0.9-1.7-2.3-3.4-4.7-5-7v-2h-1c-0.4-3.6-0.6-7.1-1.1-10.8h1.1c0.7-1.9 1.3-4 1.9-5.9h-0.9v-28.5h0.9v-2.1h1.1c1.6-2 3.4-3.8 5-5.9 1.1-0.4 2-0.7 3.1-1v-2c0.7-0.3 1.3-0.6 2-0.9v-1c2-0.4 4-0.7 6.1-1 0.3-0.7 0.6-1.3 1-2h2c1-1.3 2-2.6 3.1-4 1.7-1.1 6.3-1.1 8-1.9 1.6-2.4 3.4-4.6 5-6.9h2.1v-1c4.5-1.7 8.9 2.7 11.1 2.1 0.2-0.6 0.6-1.3 1-2.1h3c0.4-0.6 0.8-1.2 1.1-1.9 3.3-0.6 6.7-1.3 10.1-1.9v-1h3v-1h3.1v-1h8.1v-1h2c0.4-0.6 0.8-1.3 1.1-2h2v-1h2l2.1-1.9h2c0.2-0.7 0.6-1.4 1-2h2.1c0.3-0.6 0.6-1.3 0.9-1.9h2c0.4-0.7 0.8-1.3 1.1-2h3v-1h13.2c11-3 22.1-5.9 33.4-8.9v-1c2-0.7 4.1-1.4 6-2v-1h2.1c0.6-1 1.3-1.9 2-3h2v-0.8h2v-1h3c0.4-0.6 0.8-1.4 1.1-2h2.9v-1h2.1v-1c1.2-0.4 2.6-0.6 4-1v-1h3v-1h10.1v-1h3c0.4-0.6 0.6-1.3 1-1.9 1.9-1.1 5.2-1.2 8.2-1.1l1.1 1.1v-1.1c1-0.3 1.9-0.6 3-0.8 0.4-0.8 0.7-1.4 1.1-2.1 2.7 0.4 5.4 0.6 8 1v-1c1.7-0.3 3.4-0.6 5.2-1 0.3-0.5 0.6-1.2 1-2.1h2.1c0.3-0.6 0.6-1.4 1-1.9h3v-1c3 0.3 6.1 0.6 9.1 1v-1c2-0.6 4.1-1.3 6.1-2v-1h9.1v-1c2.2-0.6 3.6-0.4 5.1-1 0.3-1 0.7-1.9 1-3 3.7-0.7 6.7-2.9 10.1-3.9 8.1-1.1 16.2-2.1 24.2-3V161h5.1v-1h4.9v-1h4.1v-1h4v-1h3.1v-1c1.3-0.3 2.6-0.6 3.9-1v-1c5.2-0.3 10.2-0.7 15.4-1 0.9-1.3 1.8-2.6 3-4h4v-1h5.1v-1h7.1v-0.9c3.7-0.8 7.5-1.4 11.2-2.1v-0.9h4V142h6c8.9-2.5 20.3-3.4 29.3-5.9H512v-0.8h4.1c0.3-0.7 0.7-1.4 1-2 1.7-0.4 3.4-0.6 5.1-1v-1h23.3c0.2-0.7 0.6-1.4 1-2 3.6 0.4 7.3 0.7 11.1 1.1v-1.1h1.8v-1c3.1-1 6.2-1.9 9.2-3v-0.9h4v-1c7.7 0.4 15.5 0.6 23.3 1v-1h3v-1.1h3v-0.9h3v-1h22.3v-1h2.1v-1h7v-1h6.1v-1h4.9v-1h20.3v-1.1h3c0.6-1 1.3-1.9 2-2.9 5.4 0.3 10.8 0.7 16.2 1v-1h1.9v-1.1h3.1v-0.3h2v-1h5.2v-1h45.3c0.3 0 0.4 1.4 2.2 1v-1c1.3-0.3 2.5-0.6 4-1.1v-0.9h11.1v-1.1h3.1v-1c3.8 0.4 7.5 0.7 11.1 1v-1h4.1v-0.9h3v-1.1h3v-1c4.3-1.3 8 1.4 10.2 2.1h22.2c2.6 0.4 5.3 0.6 8.1 0.9v-0.9h6.1v-1.1c2.3 0.4 4.6 0.7 7 1.1v-1.1h3.1v-1h19.2v1h3v1.1c3.2 0.9 6.3 1.9 9.2 3z" fill="#DD1615" p-id="2679"></path><path d="M807.9 294.6h-2c-0.7 1-1.4 2.2-2.1 3h-2c-0.3 1-0.6 2-1 3l-2.1 2h-2c-1 1.4-2.1 2.7-3.2 4h-2v0.9c-3.1 1-6.2 2.1-9.4 3-0.6 0.9-1.3 2-2.1 3h-2.1c-1 1.4-2.1 2.7-3.1 4h-2.1c-0.7 1-1.4 2-2.1 2.9-3.4 0.8-6.9 1.4-10.4 2.1v1c-1.6 1.3-3.6 2.6-5.1 4v1.9c-2.2 1.7-4.2 3.3-6.2 5.1h-2.2v1h-2.1c-0.3 0.7-0.6 1.2-1 2h-2c-0.7 1-1.5 2-2.1 3-5.3 0.7-10.5 1.3-15.6 2-0.3 0.7-0.6 1.4-1 2h-2.2c-0.7 1.1-1.4 2-2.1 3-1.4 0.4-2.7 0.7-4.1 1-0.8 1-1.3 2-2.2 2.9h-2c-0.3 1.1-0.7 2-1 3l-2.1 1v2.1H706c-0.7 1-1.3 2-1.9 3-1.1 0.2-2.1 0.5-3.2 0.9-3.5 3.7-6.9 7.4-10.3 10.9-1.7 0.3-3.5 0.7-5.2 1.1v1c-0.9 0.4-2.1 0.7-3 1.1-1.6 6.1-7.5 9.1-11.4 12.9-1.8 2-3.5 4-5.2 6-1 0.6-2.1 1.4-3.1 2.1v2h-1v1.9c-0.8 0.3-1.4 0.7-2.1 1v2h-1.1c-1.1 3.1-2.1 6.1-3.1 9-2.1 1.6-4.2 3.3-6.2 5-0.4 1.6-0.6 3.3-1 5H647c-1.8 2.3-3.7 4.1-7.2 5-0.6 2.3-0.8 2.3-2.1 3.9h-1v3.1c-0.7 0.3-1.4 0.6-2.1 1-0.4 2.3-0.7 4.6-1.1 7-0.7 0.3-1.4 0.7-2 0.9v3.1h-1.2v3c-0.7 0.3-1.3 0.7-2 1v2.2c-0.7 0.2-1.4 0.4-2 0.7v2.1c-1.3 1-2.8 2-4.2 3-0.9 4-2.1 8-3.1 12-0.7 0.4-1.4 0.7-2 1v3h-1.2c-0.3 1.3-0.7 2.7-1 4h-1v3.1h-1v21.9h-1.1c-0.3 1.3-0.7 2.6-0.9 3.9h-1.2c-1.2 3.5 0 21.9 1.2 24 0.7 0.3 1.4 0.7 2 1v2h1v2h1c1.9 4.9-2.4 9.9-2 11.9h1v3.1h1c0.3 1.4 0.8 2.7 1 4h1.2v3c0.6 0.3 1.3 0.7 2 1.1v1.9h0.9c0.8 3.7 1.5 7.4 2.1 11 2.1 1.7 4.2 3.3 6.3 5.1 0.3 1.9 0.7 4 1 6 1.8 1.3 3.5 2.6 5.3 4.1v1.9c0.7 0.3 1.4 0.7 2.1 1 0.3 2.7 0.6 5.3 1 8h1c0.4 0.7 0.7 1.3 1 2h2.1c2.1 2.4 4.2 4.8 6.3 7 1.3 0.2 2.7 0.7 4.1 1 1.8 1.3 1 4.9 2 6.9 0.7 0.3 1.4 0.7 2.1 1v2.1c1.7 1.3 3.5 2.7 5.2 3.9 0.3 0.8 0.7 1.3 1 2h2.2c1 1.3 2 2.6 3 4h2.2c0.4 2.7 1.5 4.9 3.1 7.1 1 0.6 2 1.2 3.1 2v2c0.7 0.3 1.4 0.7 2.1 1v1c1.3 0.4 2.7 0.7 4.2 1 0.8 1.1 1.4 2 2.1 3h0.9v3.1h1v1.9c0.8 0.3 1.4 0.7 2.1 1v2.1c1.4 0.9 2.7 1.9 4.2 2.9 0.3 0.7 0.6 1.5 1 2h2.1c0.4 0.8 0.7 1.5 1 2.1h1.1v2h1v3.9h1c1.7 3.4-0.2 3.8 4.2 5.1v1.9c3.8 2.2 7.2 6.4 9.3 9.9 0.3 1.3 0.7 2.7 1 4.1 0.8 0.2 1.4 0.7 2.1 0.9v3.1c0.7 0.4 1.4 0.8 2.1 1.1v2h1.1v10h-1.1v2h-0.9v1h0.9v7c-0.7 0.4-1.4 0.8-2.1 1v3h-1v3h-1v1c-0.5 3.7 2.3 5.6 3.2 8 0.9 3.3-0.1 17-1.1 19-0.7 0.4-1.3 0.8-2.1 1v5h-1c-0.3 4-0.7 8-1.2 12-2.3 1.7-4.7 3.4-7 4.9-0.8 3.4-1.5 6.7-2.2 10l-3.1 2c-3 3.3-4.8 7.5-5.2 11.9l-6.1 2c-0.4 0.6-0.7 1.4-1.1 1.9-1.4 0.3-2.8 0.7-4.2 1.1-0.2 0.6-0.7 1.4-1 2h-2.1c-0.4 0.7-0.7 1.3-1.1 2-1.4 0.3-2.8 0.7-4.2 1v1.1h-2v0.9c-4.2-0.2-8.2-0.6-12.5-0.9v0.9l-6.3 2.1c-0.7 2.7-0.2 2.3-3.1 3-2.5 2.1-5.5 0.7-8.3 1.9-0.4 0.7-0.7 1.4-1.1 2h-2.1c-0.6 1.2-1.4 2.7-2.1 3.9h-2.1c-0.3 0.7-0.7 1.4-1 2.1-1.1 0.2-2.2 0.7-3.1 0.9v1.1h-3.2l-1 2h-2l-1.2 2.1h-2.1v0.9c-2.1 0.7-4.2 1.2-6.2 2v1.1h-6.2c-0.3-0.7-0.6-1.4-1-2.1-1.6 0.2-3.3 0.7-5.1 0.9-3.9-0.2-7.6-0.7-11.5-0.9v0.9h-2c-0.3 0.7-0.7 1.4-1.1 2.1-1.3 0.3-2.8 0.5-4 1v1.1c-2.8-0.4-5.6-0.8-8.3-1.1-0.4 1.6-0.7 3.2-1.1 4.9-5.5 0.8-11.1 1.5-16.5 2.2v0.9c-4.1-0.2-8.4-0.7-12.4-0.9v0.9h-2.3c-0.2 0.8-0.6 1.4-0.9 2-3.5 2.3-4.9 0.2-6.2 5-4.1 0.7-8.3 1-12.4 1 0-5.1 1.2-6.4 2.2-10-5.9-1.2-6.7-3.9-14.6-4-1.1 1.3-2.2 1.5-3.2 2.9h-1v1.1h1v7.1c-2 1.6-4.2 3.3-6.2 4.9v1h-5.1c-1.3 1.7-2.8 3.3-4.2 5-3.4 0.4-6.9 0.7-10.4 1.1v0.9H481v1h-4v1.1h-3.2v1l-7.2 0.9v1c-3.1 0.3-6.3 0.7-9.4 1.1v0.9c-1.3 0.5-2.8 0.7-4 1-0.7 0.9-1.4 2-2.1 3.1-2 0.2-4.1 0.7-6.1 1v0.9h-2.1v1h-4.2c-0.4 0.6-0.7 1.3-1 1.9h-2c-0.7 1-1.4 2-2.1 3.1-1.4 0.3-2.8 0.7-4.2 1-0.4 0.7-0.7 1.3-1.1 2-4.1 1.3-8.3 2.8-12.4 4.1-1.3 1.6-2.7 3.3-4.1 5-1.4 0.3-2.7 0.7-4.2 1-0.4 0.6-0.6 1.4-1 2h-2.2c-1.3 1.6-2.7 3.3-4.1 4.9-2.3 0.7-4.8 1.4-7.3 2.1v1.9c-0.6 0.4-1.3 0.8-2 1v3c-0.7 0.4-1.4 0.7-2.1 1v2.1c-2.4 1.6-4.8 3.2-7.2 4.9h-2.2c-5.9 3.1-7 6.6-16.5 7v-7c2.1-0.9 4.2-3 6.2-3.9 1.8-0.3 3.4-0.7 5.2-1v-1c2.1-1.7 3-3.2 6.1-4v-2.1h2.3c0.5-2.4 3.3-6.7 5.1-7.9h2c0.4-0.7 0.7-1.4 1.1-1.9h1c1.1-3.8 2.1-7.4 3.2-11.1 0.7-0.3 1.5-0.7 2.2-0.9v-2c1.3-1 2.7-2.1 4.1-3.1v-1.9l7.2-6c0.8-1 1.4-1.9 2.1-3h2c0.4-0.7 0.7-1.3 1.1-1.9 0.7-0.4 1.3-0.8 2-1 1.4-1.7 2.7-3.4 4.1-5h4.2v-1.1h3.1c1.6-7.4 4.1-8.4 9.4-12 0.7-0.9 1.4-2 2.1-2.9 1.3-0.3 2.8-0.7 4.2-1.1l1-2c2.4-2 4.7-3.9 7.2-5.9v-2.1c0.7-0.3 1.4-0.7 2.1-1v-0.9c2.6-2.7 6-3.7 7.1-8.1h2.2v-1.9c1.5-0.3 2.9-1 4.1-2v-1c2.1-0.7 4.2-1.3 6.3-2 1.6-2.1 3.3-4 5.2-6.1 2.1-0.6 4.1-1.3 6.3-2l4.2-5c0.6-0.4 1.3-0.8 2-1.1v-1.9c1.3-1 2.8-2.1 4.2-3v-2c0.7-0.4 1.3-0.7 2.1-1.1v-0.9c0.6-0.4 1.4-0.7 2.1-1v-2h1c1.4-1.7 2.4-2.4 3.1-5h2c2.2-3.4 3.4-2.9 6.3-4.9v-1c1.7-1.4 3.5-2.7 5.2-3.9v-2.1h1c1.4-1.4 0.5-1.3 3.1-2v-2h2.1c4.2-4.7 8.3-9.3 12.4-14.1h2.1c0.7-0.9 1.3-2 2-2.9h2.1c0.4-1 0.7-2.1 1-3h1.1c1.7-1.8 2.2-2.4 5.2-3.1 0.6-2.2 0.8-2.5 2.1-3.9h1.1v-2.1c0.6-0.4 1.4-0.6 2.1-1v-2c1.1-0.7 2-1.4 3-2.1 0.4-1.3 0.7-2.6 1.1-3.9h1c0.9-2.6-0.9-4.6-1-6 0.3-4.7 0.6-9.5 1-14.1h-1c0.3-2.9 0.6-5.9 1-8.9h-1c-0.4-1.4-0.7-2.8-1.1-4-1.9-1.7-4.1-3.2-6.2-5v-2c-0.7-0.3-1.3-0.6-2.1-1.1v-2.9h-1v-2.1h-1v-4.9h-1.1v-2.1c-1.2-0.7-2.1-1.3-3.3-2v-2.9h-1c-0.7-3.7-1.3-7.3-2.1-11-0.7-0.3-1.4-0.6-2-1v-2l-4.2-3v-2.1c-0.6-0.3-1.3-0.5-2.1-0.9v-2h-1c-0.6-3.7-1.3-7.4-2-11h-0.9c-0.7-2-1.5-4-2.2-6h-1v-2h-1.1c-0.4-2-0.7-4-1-6h-1.1v-3.1h-1v-2.9h-1.2v-3.1h-0.9v-3h-1c-0.7-8.6-1.3-17.3-2.1-25.9h-1v-3.1h-1v-3h-1.1c-1.1-3.3 0.9-5.7 1.1-8.1-0.4-5.9-0.8-12-1.1-18-0.7-2.3-3.4-5.6-2.1-10h1v-6h1.1v-6h1.1v-2.9h1c0.7-3.8 1.3-7.5 2.1-11.1h1c0.4-3.7 0.7-7.3 1-11.1h0.9v-3h1.2v-3h1v-3h1.1v-2h1v-3c0.7-0.4 1.3-0.7 2.1-1.1v-1.9c0.7-0.3 1.4-0.7 2.2-1v-1.9h0.9c0.3-3.1 0.7-6 1.1-9 0.6-0.4 1.3-0.7 2-1.1v-1.9c1-0.7 2.1-1.4 3.2-2.1v-2h1v-2h1.2v-3h1v-4h0.9c0.4-1 0.8-2 1.1-3 1-0.7 2.1-1.3 3.1-2v-3c0.7-0.3 1.4-0.6 2.1-1.1v-1.9c2.9-2.2 5.7-4.6 8.4-7v-2c0.7-0.4 1.4-0.8 2.2-1 0.2-2.7 0.6-5.3 0.9-8 3.4-4.7 6.8-9.3 10.4-14h5.2c0.3-3.3 0.6-6.7 1-9.9 0.7-0.4 1.4-0.7 1.9-1v-2h1.1c0.4-1.4 0.7-2.8 1.1-4h1.1v-2.1h0.8v-1.9l2.2-2v-2.1c0.6-0.3 1.3-0.6 2-0.9v-2c0.7-0.3 1.5-0.8 2.2-1.1v-2c1-0.7 2-1.4 2.9-2 0.5-1.4 0.8-2.7 1.1-4 0.7-0.2 1.4-0.6 2.1-0.9 0.3-1.4 0.7-2.8 1-4.1 1.8-1.2 3.5-2.7 5.3-4 0.7-1.1 1.3-2 2.1-3h1.1v-2.1c2.1-1.6 4.1-3.3 6.1-5 1.4-3.7 2.8-7.3 4.2-11h2v-2c3.1-1.6 6.3-3.3 9.3-4.9 0.8-2.7 1.7-3.4 3.2-5h1v-2h1c1-1.4 2-2.8 3-4 0.8-0.5 1.4-0.7 2.1-1v-2c1.4-1.1 2.9-2.1 4.3-3v-2c0.6-0.3 1.4-0.6 2-0.9 1.7-2 3.5-4.1 5.2-6.1 2.2-0.7 4.8-1.4 7.2-2v-1.1c2.5-1.8 3.8-4 7.2-5 1.1-3.4 3-2.8 5.3-4.9 2.1-2.7 4.1-5.4 6.2-8h2c0.4-0.7 0.7-1.3 1.1-1.9h2v-1.2h2.1v-1h4.1c0.4-0.7 0.7-1.3 1.1-1.9h2.1v-1.1c1.5-1.3 1.3-0.5 1.9-2.9h2.1c1-1.7 2.1-3.3 3.1-5 3.7-2.8 6.6-0.3 8.3-6.1h2.1v-1.9h2.1v-2.1h1.9c1.5-5 4.1-3.2 6.2-6.1v-2c2.2-1.6 4.3-3.2 6.3-5 2.9-3.8 6.2-9.7 11.4-11 0.8-3.1 1.8-2.2 2.1-3.1 0.7-2.9 1.4-6 2.1-8.9 3.9-3.3 7.7-6.7 11.5-9.9h2.1c0.3-0.7 0.6-1.4 1-2h5.2V224c4.7 0.4 9.7 0.8 14.4 1.1v0.9c1 0.4 2.1 0.7 3 1.1 0.4 0.6 0.8 1.2 1.2 1.9 3.1 0.4 6.2 0.6 9.3 1 1 1.7 2.1 3.2 3.2 5 1.6 0.4 3.4 0.7 5.1 1v1h2c2.1 1.7 4.2 3.4 6.3 5v3h1.1c0.4 1.3 0.6 2.7 1 4h1c1 4.6 2 9.3 3.2 14h1v1.9c2 1.8 4.2 3.4 6.2 5.1v7.9c-3 3.4-3.3 12-4.1 16.7z" fill="#231815" p-id="2680"></path></svg>